<svg width="24" height="27" viewBox="0 0 24 27" fill="none" xmlns="http://www.w3.org/2000/svg">
<g opacity="0.4">
<path fill-rule="evenodd" clip-rule="evenodd" d="M7.81 2.47559H16.191C19.28 2.47559 21 4.4358 21 7.79458V19.1704C21 22.5843 19.28 24.5004 16.191 24.5004H7.81C4.77 24.5004 3 22.5843 3 19.1704V7.79458C3 4.4358 4.77 2.47559 7.81 2.47559ZM8.07999 7.6072V7.59619H11.069C11.5 7.59619 11.85 7.98163 11.85 8.45406C11.85 8.93971 11.5 9.32514 11.069 9.32514H8.07999C7.64899 9.32514 7.29999 8.93971 7.29999 8.46617C7.29999 7.99264 7.64899 7.6072 8.07999 7.6072ZM8.07993 14.3025H15.9199C16.3499 14.3025 16.6999 13.9171 16.6999 13.4436C16.6999 12.97 16.3499 12.5835 15.9199 12.5835H8.07993C7.64893 12.5835 7.29993 12.97 7.29993 13.4436C7.29993 13.9171 7.64893 14.3025 8.07993 14.3025ZM8.07996 19.3354H15.92C16.319 19.2914 16.62 18.9158 16.62 18.4764C16.62 18.0249 16.319 17.6505 15.92 17.6065H8.07996C7.77996 17.5734 7.48996 17.7276 7.32996 18.0139C7.16996 18.2892 7.16996 18.6526 7.32996 18.939C7.48996 19.2143 7.77996 19.3795 8.07996 19.3354Z" fill="#0D0D0D"/>
</g>
</svg>
