<svg width="240" height="39" viewBox="0 0 240 39" fill="none" xmlns="http://www.w3.org/2000/svg">
<path fill-rule="evenodd" clip-rule="evenodd" d="M17.9685 1.96605C13.797 1.96663 9.76185 3.49124 6.58475 6.26717C3.40765 9.0431 1.2959 12.8893 0.627255 17.1176C-0.0413889 21.346 0.776693 25.6807 2.93516 29.3464C5.09363 33.0121 8.45167 35.7696 12.4086 37.1257C13.2871 37.2933 13.6636 36.7391 13.6636 36.2622V33.1947C8.78148 34.2774 7.75233 30.7717 7.75233 30.7717C7.40901 29.667 6.68644 28.728 5.71914 28.1296C4.12522 27.0212 5.84464 27.0341 5.84464 27.0341C6.40139 27.1148 6.93281 27.3252 7.39829 27.6491C7.86378 27.973 8.25103 28.4018 8.53047 28.9029C9.0166 29.7983 9.82912 30.4588 10.7894 30.7391C11.7496 31.0195 12.779 30.8968 13.6511 30.3979C13.722 29.4835 14.1145 28.6268 14.7555 27.9878C10.8649 27.5238 6.76084 25.9772 6.76084 19.069C6.73238 17.2748 7.37986 15.5386 8.56812 14.223C8.03028 12.6689 8.09316 10.9621 8.74382 9.45423C8.74382 9.45423 10.2122 8.96447 13.5758 11.2973C16.4517 10.4917 19.4853 10.4917 22.3612 11.2973C25.7122 8.96447 27.1806 9.45423 27.1806 9.45423C27.8313 10.9621 27.8942 12.6689 27.3563 14.223C28.5446 15.5386 29.1921 17.2748 29.1636 19.069C29.1636 26.003 25.0596 27.5238 21.1438 27.9749C21.5632 28.4115 21.8867 28.9354 22.0924 29.5112C22.2981 30.087 22.3812 30.7014 22.3361 31.313V36.2622C22.3361 36.8551 22.6499 37.3062 23.5911 37.1257C27.5533 35.7679 30.9148 33.0051 33.0729 29.3327C35.231 25.6602 36.0446 21.3184 35.3677 17.0857C34.6909 12.8531 32.5678 9.00646 29.3793 6.23569C26.1908 3.46493 22.1454 1.95123 17.9685 1.96605Z" fill="#999999"/>
<path d="M83.0667 3.16602C73.7892 3.16602 66.2667 10.5094 66.2667 19.566C66.2667 28.6226 73.7892 35.966 83.0667 35.966C92.3442 35.966 99.8667 28.6226 99.8667 19.566C99.8667 10.5094 92.3442 3.16602 83.0667 3.16602ZM91.1404 15.5282C91.1517 15.7003 91.1517 15.8797 91.1517 16.0554C91.1517 21.4293 86.9592 27.6196 79.2979 27.6196C76.9354 27.6196 74.7454 26.9497 72.9004 25.7966C73.2379 25.8332 73.5604 25.8478 73.9054 25.8478C75.8554 25.8478 77.6479 25.2035 79.0767 24.1126C77.2467 24.076 75.7092 22.9046 75.1842 21.2939C75.8254 21.3854 76.4029 21.3854 77.0629 21.2207C76.1206 21.0338 75.2737 20.5342 74.666 19.8068C74.0583 19.0794 73.7272 18.1691 73.7292 17.2305V17.1792C74.2804 17.4831 74.9292 17.6698 75.6079 17.6954C75.0373 17.3242 74.5694 16.8213 74.2456 16.2312C73.9218 15.6412 73.7521 14.9823 73.7517 14.3129C73.7517 13.5551 73.9542 12.8632 74.3179 12.2629C75.3638 13.5197 76.6689 14.5477 78.1484 15.2799C79.6279 16.0122 81.2487 16.4323 82.9054 16.513C82.3167 13.7491 84.4317 11.5124 86.9742 11.5124C88.1742 11.5124 89.2542 12.003 90.0154 12.7937C90.9567 12.6216 91.8567 12.2775 92.6592 11.8163C92.3479 12.7571 91.6954 13.5515 90.8292 14.053C91.6692 13.9651 92.4792 13.7382 93.2292 13.4197C92.6629 14.2324 91.9542 14.9535 91.1404 15.5282Z" fill="#999999"/>
<path d="M161.973 5.16602H137.493C136.293 5.16602 135.333 6.12602 135.333 7.20602V31.806C135.333 32.886 136.293 33.846 137.493 33.846H161.973C163.173 33.846 164.133 32.886 164.133 31.806V7.20602C164.133 6.12602 163.173 5.16602 161.973 5.16602ZM143.853 29.646H139.653V15.966H143.853V29.646ZM141.813 14.046C140.493 14.046 139.293 12.966 139.293 11.526C139.293 10.086 140.373 9.00602 141.813 9.00602C143.133 9.00602 144.333 10.086 144.333 11.526C144.333 12.966 143.133 14.046 141.813 14.046ZM159.933 29.526H155.733V22.806C155.733 21.246 155.733 19.086 153.453 19.086C151.173 19.086 150.933 20.886 150.933 22.566V29.406H146.733V15.966H150.693V17.766H150.813C151.413 16.686 152.853 15.486 154.893 15.486C159.213 15.486 160.053 18.366 160.053 22.086V29.526H159.933Z" fill="#999999"/>
<path d="M216.659 18.2543C216.296 18.2249 215.932 18.3013 215.614 18.4737C215.297 18.6462 215.042 18.9065 214.881 19.2206C214.721 19.5348 214.663 19.8881 214.715 20.2344C214.767 20.5807 214.927 20.9038 215.173 21.1615C215.42 21.4191 215.742 21.5993 216.097 21.6784C216.452 21.7575 216.824 21.7318 217.163 21.6048C217.503 21.4778 217.795 21.2553 218 20.9664C218.206 20.6776 218.316 20.3359 218.316 19.9859C218.326 19.7677 218.291 19.5498 218.213 19.3447C218.135 19.1395 218.015 18.9512 217.861 18.7904C217.707 18.6295 217.522 18.4994 217.316 18.4074C217.109 18.3155 216.886 18.2635 216.659 18.2543ZM222.59 18.2543C222.227 18.2249 221.863 18.3013 221.546 18.4737C221.228 18.6462 220.973 18.9065 220.812 19.2206C220.652 19.5348 220.594 19.8881 220.646 20.2344C220.698 20.5807 220.858 20.9038 221.105 21.1615C221.351 21.4191 221.673 21.5993 222.028 21.6784C222.383 21.7575 222.755 21.7318 223.095 21.6048C223.434 21.4778 223.726 21.2553 223.932 20.9664C224.137 20.6776 224.247 20.3359 224.247 19.9859C224.257 19.7677 224.222 19.5498 224.144 19.3447C224.066 19.1395 223.947 18.9512 223.793 18.7904C223.639 18.6295 223.453 18.4994 223.247 18.4074C223.04 18.3155 222.817 18.2635 222.59 18.2543Z" fill="#999999"/>
<path d="M230.487 5.16602H208.712C208.274 5.16696 207.84 5.25084 207.435 5.41286C207.03 5.57489 206.663 5.81188 206.353 6.11031C206.044 6.40874 205.799 6.76275 205.632 7.15212C205.465 7.54149 205.38 7.9586 205.381 8.37962V29.4708C205.38 29.8918 205.465 30.3089 205.632 30.6983C205.799 31.0877 206.044 31.4417 206.353 31.7401C206.663 32.0385 207.03 32.2755 207.435 32.4376C207.84 32.5996 208.274 32.6835 208.712 32.6844H227.14L226.279 29.7984L228.359 31.6548L230.325 33.402L233.819 36.366V8.37962C233.82 7.9586 233.735 7.54149 233.568 7.15212C233.401 6.76275 233.156 6.40874 232.847 6.11031C232.537 5.81188 232.17 5.57489 231.765 5.41286C231.36 5.25084 230.926 5.16696 230.487 5.16602ZM224.215 25.5396C224.215 25.5396 223.63 24.8688 223.142 24.276C224.32 24.0098 225.362 23.3522 226.084 22.4196C225.499 22.7932 224.872 23.1019 224.215 23.34C223.459 23.6498 222.668 23.8749 221.859 24.0108C220.467 24.2568 219.04 24.2515 217.65 23.9952C216.834 23.842 216.035 23.6174 215.261 23.3244C214.854 23.1739 214.457 22.9967 214.075 22.794C214.026 22.7628 213.977 22.7472 213.929 22.716C213.904 22.7043 213.882 22.6885 213.864 22.6692C213.708 22.5877 213.556 22.4992 213.409 22.404C214.104 23.3171 215.11 23.9682 216.252 24.2448C215.765 24.8376 215.164 25.5396 215.164 25.5396C214.198 25.5646 213.242 25.3614 212.377 24.9479C211.513 24.5344 210.768 23.9233 210.207 23.1684C210.26 20.0058 211.06 16.8961 212.547 14.0736C213.856 13.0869 215.452 12.5145 217.114 12.4356L217.276 12.6228C215.713 12.9943 214.253 13.6921 213.002 14.6664C213.002 14.6664 213.36 14.4792 213.961 14.214C215.129 13.7021 216.374 13.3705 217.65 13.2312C217.741 13.2131 217.833 13.2027 217.926 13.2C219.015 13.0638 220.117 13.0533 221.209 13.1688C222.925 13.357 224.587 13.8658 226.1 14.6664C224.913 13.7385 223.533 13.0632 222.054 12.6852L222.281 12.4356C223.943 12.5145 225.539 13.0869 226.847 14.0736C228.335 16.8961 229.135 20.0058 229.187 23.1684C228.623 23.9226 227.874 24.5328 227.008 24.9461C226.141 25.3593 225.182 25.5631 224.215 25.5396Z" fill="#999999"/>
</svg>
