<svg width="24" height="28" viewBox="0 0 24 28" fill="none" xmlns="http://www.w3.org/2000/svg">
<g opacity="0.4">
<path fill-rule="evenodd" clip-rule="evenodd" d="M16.4109 3.75204L16.4119 4.57756C19.1665 4.81531 20.9862 6.88241 20.9891 10.0524L21 19.3312C21.0039 22.7874 19.0322 24.9139 15.8718 24.9194L8.15188 24.9304C5.01119 24.9348 3.01482 22.7577 3.01087 19.2916L3.00001 10.1217C2.99606 6.93084 4.75153 4.86924 7.50617 4.59077L7.50518 3.76525C7.5042 3.28095 7.83001 2.91662 8.26444 2.91662C8.69886 2.91552 9.02468 3.27875 9.02567 3.76305L9.02666 4.53353L14.8914 4.52473L14.8904 3.75424C14.8894 3.26994 15.2152 2.90671 15.6497 2.90561C16.0742 2.90451 16.4099 3.26774 16.4109 3.75204ZM4.52146 10.4618L19.4696 10.4398V10.0546C19.4272 7.68811 18.349 6.44653 16.4138 6.26161L16.4148 7.10914C16.4148 7.58244 16.0801 7.95778 15.6556 7.95778C15.2211 7.95888 14.8943 7.58464 14.8943 7.11134L14.8933 6.21979L9.02862 6.22859L9.0296 7.11905C9.0296 7.59345 8.70477 7.96768 8.27035 7.96768C7.83592 7.96878 7.50912 7.59565 7.50912 7.12125L7.50813 6.27372C5.58284 6.48615 4.51751 7.73213 4.52048 10.1195L4.52146 10.4618ZM15.2399 15.4645V15.4766C15.2498 15.9829 15.625 16.367 16.0801 16.356C16.5244 16.3439 16.8789 15.9246 16.869 15.4183C16.8483 14.9339 16.4918 14.5388 16.0485 14.5399C15.5943 14.5509 15.2389 14.9582 15.2399 15.4645ZM16.0554 20.4066C15.6013 20.3956 15.235 19.9784 15.234 19.4721C15.2241 18.9658 15.5884 18.5464 16.0426 18.5343H16.0525C16.5165 18.5343 16.8927 18.9515 16.8927 19.4688C16.8937 19.9861 16.5185 20.4055 16.0554 20.4066ZM11.1721 15.4821C11.1919 15.9884 11.568 16.3836 12.0222 16.3615C12.4665 16.3384 12.821 15.9202 12.8012 15.4138C12.7903 14.9185 12.425 14.5333 11.9807 14.5344C11.5266 14.5564 11.1711 14.9758 11.1721 15.4821ZM12.0261 20.3571C11.572 20.3791 11.1968 19.9839 11.176 19.4776C11.176 18.9713 11.5305 18.553 11.9847 18.5299C12.429 18.5288 12.7953 18.914 12.8051 19.4083C12.8259 19.9157 12.4704 20.3339 12.0261 20.3571ZM7.1043 15.5206C7.12405 16.0269 7.50022 16.4232 7.95439 16.4001C8.39869 16.3781 8.75314 15.9587 8.73241 15.4524C8.72253 14.9571 8.35722 14.5718 7.91194 14.5729C7.45777 14.5949 7.10332 15.0143 7.1043 15.5206ZM7.95836 20.3626C7.50419 20.3857 7.12901 19.9894 7.10827 19.4831C7.10728 18.9768 7.46272 18.5574 7.91689 18.5354C8.36119 18.5343 8.72749 18.9196 8.73736 19.4149C8.7581 19.9212 8.40365 20.3405 7.95836 20.3626Z" fill="#0D0D0D"/>
</g>
</svg>
