<svg width="24" height="27" viewBox="0 0 24 27" fill="none" xmlns="http://www.w3.org/2000/svg">
<g opacity="0.4">
<path fill-rule="evenodd" clip-rule="evenodd" d="M18.7071 9.81985C18.7071 11.2029 19.039 12.0181 19.7695 12.9576C20.3231 13.6497 20.5 14.5381 20.5 15.5019C20.5 16.4646 20.2128 17.3786 19.6373 18.1206C18.884 19.0101 17.8215 19.578 16.7372 19.6767C15.1659 19.8242 13.5937 19.9484 12.0005 19.9484C10.4063 19.9484 8.83505 19.8741 7.26375 19.6767C6.17846 19.578 5.11602 19.0101 4.36367 18.1206C3.78822 17.3786 3.5 16.4646 3.5 15.5019C3.5 14.5381 3.6779 13.6497 4.23049 12.9576C4.98384 12.0181 5.29392 11.2029 5.29392 9.81985V9.35069C5.29392 7.49844 5.71333 6.28728 6.577 5.10162C7.86106 3.37248 9.91935 2.33545 11.9558 2.33545H12.0452C14.1254 2.33545 16.2502 3.4224 17.5125 5.22584C18.3314 6.3871 18.7071 7.54725 18.7071 9.35069V9.81985ZM9.07367 22.2248C9.07367 21.6702 9.53582 21.4163 9.96318 21.3076C10.4631 21.1911 13.5093 21.1911 14.0092 21.3076C14.4365 21.4163 14.8987 21.6702 14.8987 22.2248C14.8738 22.7528 14.5926 23.2208 14.204 23.5181C13.7001 23.9506 13.1087 24.2246 12.4906 24.3233C12.1487 24.3721 11.8128 24.3732 11.4828 24.3233C10.8636 24.2246 10.2723 23.9506 9.76937 23.5169C9.37978 23.2208 9.09852 22.7528 9.07367 22.2248Z" fill="#0D0D0D"/>
</g>
</svg>
