<svg width="24" height="27" viewBox="0 0 24 27" fill="none" xmlns="http://www.w3.org/2000/svg">
<g opacity="0.4">
<path fill-rule="evenodd" clip-rule="evenodd" d="M20.4022 15.5175C20.7599 15.7268 21.0358 16.0571 21.23 16.3875C21.6081 17.0703 21.5775 17.9072 21.2096 18.645L20.4942 19.9665C20.1161 20.6713 19.4109 21.1118 18.6853 21.1118C18.3277 21.1118 17.9291 21.0017 17.6021 20.7815C17.3364 20.5942 17.0298 20.5282 16.7027 20.5282C15.691 20.5282 14.8428 21.4422 14.8121 22.5324C14.8121 23.7989 13.8719 24.79 12.6967 24.79H11.3068C10.1213 24.79 9.18113 23.7989 9.18113 22.5324C9.16069 21.4422 8.31247 20.5282 7.30073 20.5282C6.96348 20.5282 6.6569 20.5942 6.40141 20.7815C6.07438 21.0017 5.6656 21.1118 5.31813 21.1118C4.58232 21.1118 3.87717 20.6713 3.49905 19.9665L2.7939 18.645C2.41577 17.9292 2.39533 17.0703 2.77346 16.3875C2.93697 16.0571 3.24356 15.7268 3.59102 15.5175C3.87717 15.3633 4.06112 15.1101 4.23486 14.8127C4.74584 13.8657 4.43925 12.6212 3.57059 12.0596C2.55885 11.4319 2.23182 10.0333 2.81434 8.9431L3.49905 7.64364C4.09178 6.55341 5.35901 6.16797 6.38097 6.80669C7.27007 7.33529 8.42488 6.98289 8.94608 6.04684C9.10959 5.73849 9.20157 5.40812 9.18113 5.07774C9.16069 4.64826 9.27311 4.2408 9.46728 3.91043C9.8454 3.22766 10.5301 2.78716 11.2761 2.76514H12.7171C13.4734 2.76514 14.1581 3.22766 14.5362 3.91043C14.7201 4.2408 14.8428 4.64826 14.8121 5.07774C14.7917 5.40812 14.8837 5.73849 15.0472 6.04684C15.5684 6.98289 16.7232 7.33529 17.6225 6.80669C18.6342 6.16797 19.9117 6.55341 20.4942 7.64364L21.1789 8.9431C21.7716 10.0333 21.4446 11.4319 20.4227 12.0596C19.554 12.6212 19.2474 13.8657 19.7686 14.8127C19.9321 15.1101 20.1161 15.3633 20.4022 15.5175ZM9.10962 13.7884C9.10962 15.5173 10.4075 16.8939 12.012 16.8939C13.6165 16.8939 14.8837 15.5173 14.8837 13.7884C14.8837 12.0594 13.6165 10.6719 12.012 10.6719C10.4075 10.6719 9.10962 12.0594 9.10962 13.7884Z" fill="#0D0D0D"/>
</g>
</svg>
