<svg width="76" height="40" viewBox="0 0 76 40" fill="none" xmlns="http://www.w3.org/2000/svg">
<g clip-path="url(#clip0_26705_523)">
<rect width="76" height="40" rx="20" fill="#3D3D3D"/>
<path d="M12.5 20H13.3333M20 12.5V13.3333M26.6667 20H27.5M20 26.6667V27.5M14.6667 14.6667L15.25 15.25M25.3333 14.6667L24.75 15.25M24.75 24.75L25.3333 25.3333M15.25 24.75L14.6667 25.3333M16.6667 20C16.6667 20.8841 17.0179 21.7319 17.643 22.357C18.2681 22.9821 19.1159 23.3333 20 23.3333C20.8841 23.3333 21.7319 22.9821 22.357 22.357C22.9821 21.7319 23.3333 20.8841 23.3333 20C23.3333 19.1159 22.9821 18.2681 22.357 17.643C21.7319 17.0179 20.8841 16.6667 20 16.6667C19.1159 16.6667 18.2681 17.0179 17.643 17.643C17.0179 18.2681 16.6667 19.1159 16.6667 20Z" stroke="#A3A3A3" stroke-width="1.5" stroke-linecap="round" stroke-linejoin="round"/>
<g filter="url(#filter0_d_26705_523)">
<rect x="40" y="4" width="32" height="32" rx="16" fill="#1F1F1F"/>
<path d="M55.9998 12.5C56.1098 12.5 56.219 12.5 56.3273 12.5C55.2568 13.4947 54.5686 14.8332 54.3826 16.2826C54.1965 17.7321 54.5242 19.201 55.3088 20.4339C56.0933 21.6668 57.2851 22.5858 58.677 23.0312C60.0688 23.4765 61.5728 23.4201 62.9273 22.8716C62.4063 24.1254 61.5546 25.2141 60.4633 26.0218C59.372 26.8295 58.0819 27.3258 56.7306 27.4578C55.3793 27.5897 54.0175 27.3524 52.7906 26.7711C51.5636 26.1898 50.5174 25.2864 49.7636 24.1571C49.0099 23.0279 48.5768 21.7152 48.5106 20.3591C48.4443 19.003 48.7475 17.6544 49.3876 16.457C50.0278 15.2597 50.9809 14.2586 52.1455 13.5606C53.31 12.8625 54.6421 12.4936 55.9998 12.4933V12.5Z" stroke="#FAFAFA" stroke-width="1.5" stroke-linecap="round" stroke-linejoin="round"/>
</g>
</g>
<defs>
<filter id="filter0_d_26705_523" x="20" y="-10" width="72" height="72" filterUnits="userSpaceOnUse" color-interpolation-filters="sRGB">
<feFlood flood-opacity="0" result="BackgroundImageFix"/>
<feColorMatrix in="SourceAlpha" type="matrix" values="0 0 0 0 0 0 0 0 0 0 0 0 0 0 0 0 0 0 127 0" result="hardAlpha"/>
<feOffset dy="6"/>
<feGaussianBlur stdDeviation="10"/>
<feComposite in2="hardAlpha" operator="out"/>
<feColorMatrix type="matrix" values="0 0 0 0 0 0 0 0 0 0 0 0 0 0 0 0 0 0 0.03 0"/>
<feBlend mode="normal" in2="BackgroundImageFix" result="effect1_dropShadow_26705_523"/>
<feBlend mode="normal" in="SourceGraphic" in2="effect1_dropShadow_26705_523" result="shape"/>
</filter>
<clipPath id="clip0_26705_523">
<rect width="76" height="40" rx="20" fill="white"/>
</clipPath>
</defs>
</svg>
