<svg width="24" height="23" viewBox="0 0 24 23" fill="none" xmlns="http://www.w3.org/2000/svg">
<g opacity="0.4">
<path fill-rule="evenodd" clip-rule="evenodd" d="M21.7872 7.47402C21.6518 7.61887 21.4681 7.70164 21.2747 7.70164C20.559 7.70164 19.9787 8.32242 19.9787 9.07771C19.9787 9.83817 20.5522 10.4558 21.2611 10.4641C21.6605 10.4683 22 10.7662 22 11.1935V13.8474C22 16.0812 20.3075 17.8928 18.2186 17.8928H15.0658C14.7398 17.8928 14.4758 17.6104 14.4758 17.2617V15.0269C14.4758 14.5923 14.1567 14.2509 13.7505 14.2509C13.354 14.2509 13.0251 14.5923 13.0251 15.0269V17.2617C13.0251 17.6104 12.7611 17.8928 12.4362 17.8928H5.78143C3.70213 17.8928 2 16.0822 2 13.8474V11.1935C2 10.7662 2.33946 10.4683 2.73888 10.4641C3.44874 10.4558 4.02128 9.83817 4.02128 9.07771C4.02128 8.34312 3.46035 7.78441 2.72534 7.78441C2.53191 7.78441 2.34816 7.70164 2.21277 7.55679C2.07737 7.41194 2 7.21536 2 7.00844V4.32873C2 2.09805 3.706 0.272949 5.7911 0.272949H12.4362C12.7611 0.272949 13.0251 0.555405 13.0251 0.904078V3.55275C13.0251 3.97695 13.354 4.32873 13.7505 4.32873C14.1567 4.32873 14.4758 3.97695 14.4758 3.55275V0.904078C14.4758 0.555405 14.7398 0.272949 15.0658 0.272949H18.2186C20.3075 0.272949 22 2.08356 22 4.31838V6.92566C22 7.13259 21.9226 7.32917 21.7872 7.47402ZM13.7505 12.2437C14.1567 12.2437 14.4758 11.8919 14.4758 11.4677V7.3292C14.4758 6.905 14.1567 6.55322 13.7505 6.55322C13.354 6.55322 13.0251 6.905 13.0251 7.3292V11.4677C13.0251 11.8919 13.354 12.2437 13.7505 12.2437Z" fill="#0D0D0D"/>
</g>
</svg>
