<svg width="28" height="28" viewBox="0 0 28 28" fill="none" xmlns="http://www.w3.org/2000/svg">
<path d="M10.5 4.66675V23.3334M16.3333 11.6667L18.6667 14.0001L16.3333 16.3334M4.66667 7.00008C4.66667 6.38124 4.9125 5.78775 5.35009 5.35017C5.78767 4.91258 6.38117 4.66675 7.00001 4.66675H21C21.6188 4.66675 22.2123 4.91258 22.6499 5.35017C23.0875 5.78775 23.3333 6.38124 23.3333 7.00008V21.0001C23.3333 21.6189 23.0875 22.2124 22.6499 22.65C22.2123 23.0876 21.6188 23.3334 21 23.3334H7.00001C6.38117 23.3334 5.78767 23.0876 5.35009 22.65C4.9125 22.2124 4.66667 21.6189 4.66667 21.0001V7.00008Z" stroke="#A3A3A3" stroke-width="1.5" stroke-linecap="round" stroke-linejoin="round"/>
</svg>
